<svg xmlns="http://www.w3.org/2000/svg" viewBox="0 0 150 150">
<!-- SVG created with Arrow, by QuiverAI (https://quiver.ai) -->
  <style type="text/css">.cls-0 {fill:#1C3163;}
.cls-1 {fill:#F47920;}
.cls-2 {fill:#E95928;}
.cls-3 {fill:#FFFFFF;}</style>
  <path class="cls-0" d="m127.5 26c-0.6-4.4-11.5-9.2-17-11.8-5.5-2.3-13.1-5.2-19.4-7.2-6.3-1.9-12.4-3.4-19.2-4.5-5.9-0.9-19.6-3.1-19.6 2.4 0 0.9 0 1.8 0.1 2.5l2.3 15.6-23.7 15c-1.3 0.9-2.1 1.9-2.4 3.5-0.9 4.9-5.6 34.5-6.3 40.9-0.2 2-0.2 3.8-0.1 6.6 0.3 10 1.2 40.4 1.8 42.5 0.3 0.9 1 1.5 1.8 2.1l9.6 8.3c0.7 0.6 1.4 1 2.2 1.2l17.8 5.5c0.7 0.2 1.5 0.4 2.2 0.4l15.4-1.1c1 0 2-0.6 2.7-1.3 1.9-2.1 24.2-31.3 26.9-34.7 0.7-0.9 1.4-2 1.9-3.1l17.5-33.9c0.9-1.8 1.9-4.4 1.4-6.7-0.6-2.9-8.1-22.9-9.2-26.2l12.3-12c1-0.9 1.3-2.2 1-4z"/>
  <path class="cls-1" d="m110.1 15.9c-6.4-2.7-18-6.9-25.6-8.4-7.1-1.2-23.4-4.7-28.5-3.5-1.1 0.3-1.9 1.2-1.1 2.1l12.9 8.9 2.8 18.2 24 7.6 13.1-11.8 16.1-0.4c2.3-0.5 2.9-2.1-1.7-5.2-3.5-2.4-8.7-6.1-12-7.5z"/>
  <path class="cls-1" d="m94.6 42.9-24.3-7.3-19.3 17 16.3-18.9-11.5-8.8-23.7 15c-0.9 0.4-1.2 1.5-1.1 1.6 0.9 1.8 14.3 13.8 14.4 15 0.3 1.1-5 57.3-6.3 72.3-2.6-21.6-8.5-85.5-8.6-85.3-0.8 3.6-5.6 34.9-6.2 39.5-0.4 2.7 0.1 11.2 0.6 30.4l0.8 10.3 0.4-32.8 11.8 49.9 17.1 5.5 0.1 0.1-0.1-0.1 1.3 0.3 1 0.3 43.4-71.3c0.3-0.6 0.9-1.2 1.7-1.4l18.6-2.8 0.3-1.4-19.6-27.1z"/>
  <path class="cls-2" d="m95.2 42.9 7 28.8 19-2.3 0.1 0.2 0.1-0.2-19.5-27.1z"/>
  <path class="cls-2" d="m54.6 7.6 2.5 15.4 11.6 8.9z"/>
  <path class="cls-3" d="m33.8 39.5 2.7 1.8 18.4-14.2-0.1-0.2z"/>
  <path class="cls-3" d="m35.8 41.9 10.9 11.9 11.7-10.3-11.8 5.6z"/>
  <path class="cls-3" d="m48.4 57.6-4.9 55.2 9.3-52.7z"/>
  <path class="cls-2" d="m33.8 123.5 4.2 17.3 17 5.5 0.1 0.1-0.1-0.1 1.3 0.3-2.8-4.2-12.8-3.2 2.4-18.8z"/>
  <path class="cls-2" d="m45.4 118 9.4 23.5 25-36.8-22.5 42.2 17.1-3.1 40.7-59.6 1.5-4.1-56.1 64.7-11.7 0.9-3.4-1.5-7.5-3.4z"/>
  <path class="cls-2" d="m95 72-0.6 3.9c-1.3 5-30.2 30.4-49 42l2.6 6.8-4.3-10.6 0.4-4.8 4.3-51.7 4.4 2.5-3.1 19.3 3.1-19.5s-3.8-3-3.2-3.8c0.8-1.2 20.8-19.5 20.8-19.5l2.2-0.2-16.8 18.6 14.5 6.7-20-4.7c-0.6-0.2-1-0.6-0.6-1.1l20.6-20.3 22.5 7 0.7 23.9-19.7-4.2 25.2 9.3z"/>
  <path class="cls-3" d="m70.9 15.8s33.7 11.8 36.5 13l0.3 0.2c0.4 0.1 0.2 0-0.3-0.2l-2.8 0.2s5 1 3.1 0c-3.8-0.4-36.8-13.2-36.8-13.2z"/>
  <path class="cls-3" d="m70.4 17.3 2.2 15.1 1.4-13.3z"/>
  <path class="cls-2" d="m74.6 29.4-0.2 3.4 18.9 6.3 10.9-10.6s-21.1 0.5-29.6 0.9z"/>
  <path class="cls-3" d="m108.3 26.5c-3.7-0.6-37.3-10.7-37.3-10.7s32 9.3 38 10.6c1.9 0.4 13.4 1.4 15.1 1 2.2-0.4 1.6-1.8 1.6-0.4 0 1.2-0.3 1.1-1.9 0.6-0.2 0-12.1-0.5-15.5-1.1z"/>
  <path class="cls-3" d="m92.9 42.6h-0.1l0.7 23.9-19.7-4.2 25.2 9.3z"/>
  <path class="cls-2" d="m97.6 40.6 25.7-10.7 0.1 0.1-11 10.8z"/>
  <path class="cls-3" d="m101.4 68.4 17.2 0.5v0.1l-16.5 2.6z"/>
  <path class="cls-3" d="m54.7 141.3 2.6 1.8 22.6-38.6z"/>
  <path class="cls-0" d="m61.5 6.1c0.4-3 15 0.5 23.1 2.5 10.8 2.7 34.3 11.3 34 15.5-0.2 2.5-13.3-0.7-21-2.7-9.7-2.5-36.5-11.8-36.1-15.3z"/>
  <path class="cls-3" d="m67.1 33.2-20.5 15.9 0.7 3.5 20-18.9z"/>
  <path class="cls-0" d="m51 52.6 16.1-18.9 0.7-0.5 0.9 1.2z"/>
  <path class="cls-3" d="m55.5 3.8 7.4 1.6 21.5 2s-23.5-6.1-28.9-3.6z"/>
</svg>